<?xml version="1.0" encoding="utf-8"?>
<!-- Generator: Adobe Illustrator 16.0.4, SVG Export Plug-In . SVG Version: 6.00 Build 0)  -->
<!DOCTYPE svg PUBLIC "-//W3C//DTD SVG 1.1//EN" "http://www.w3.org/Graphics/SVG/1.1/DTD/svg11.dtd">
<svg version="1.1" id="Layer_1" xmlns="http://www.w3.org/2000/svg" xmlns:xlink="http://www.w3.org/1999/xlink" x="0px" y="0px"
	 width="400px" height="400px" viewBox="0 0 400 400" enable-background="new 0 0 400 400" xml:space="preserve">
<path fill-rule="evenodd" clip-rule="evenodd" d="M320.395,120.059c0,6.939,0,13.69,0,20.815c13.211,0,25.825,0,38.853,0
	c0,26.44,0,52.488,0,78.906c-6.222,0-12.33,0-19.096,0c0,6.876,0,13.428,0,20.441c-13.567,0-26.489,0-39.922,0
	c0,13.699,0,26.93,0,40.562c-79.885,0-159.251,0-239.222,0c0-26.879,0-53.768,0-81.166c-7.026,0-13.46,0-20.275,0
	c0-19.718,0-38.92,0-58.54c6.629,0,13.065,0,20.028,0c0-7.129,0-13.872,0-21.019C147.344,120.059,233.395,120.059,320.395,120.059z
	 M319.645,221.062c0-7.364,0-14.1,0-21.557c7.102,0,13.63,0,20.141,0c0-13.351,0-25.961,0-39.288c-6.749,0-13.283,0-20.338,0
	c0-6.792,0-12.878,0-19.079c-26.504,0-52.454,0-78.769,0c0,39.565,0,78.951,0,118.609c12.935,0,25.664,0,39.025,0
	c0-12.922,0-25.641,0-38.687C293.111,221.062,305.895,221.062,319.645,221.062z M160.271,220.816c0-26.807,0-53.172,0-79.554
	c-6.757,0-12.834,0-18.973,0c0,32.853,0,65.398,0,98.492c6.41,0,12.488,0,19.09,0c0,6.957,0,13.375,0,19.986
	c13.276,0,26.008,0,39.298,0c0-6.68,0-13.1,0-20.23c7.058,0,13.587,0,19.92,0c0-33.281,0-65.835,0-98.253
	c-13.017,0-25.617,0-38.807,0c0,26.67,0,53.048,0,79.56C173.902,220.816,167.599,220.816,160.271,220.816z M81.211,259.598
	c13.473,0,26.191,0,38.885,0c0-39.665,0-78.906,0-118.324c-13.013,0-25.731,0-38.991,0c0,6.375,0,12.453,0,19.083
	c-6.602,0-12.677,0-18.855,0c0,7.13,0,13.684,0,20.756c6.408,0,12.482,0,18.961,0C81.211,207.554,81.211,233.473,81.211,259.598z"/>
<path fill-rule="evenodd" clip-rule="evenodd" d="M300.747,160.846c0,13.248,0,26.003,0,39.13c-6.914,0-13.624,0-20.719,0
	c0-12.892,0-25.769,0-39.13C286.729,160.846,293.562,160.846,300.747,160.846z"/>
</svg>
